<svg width="143" height="122" viewBox="0 0 143 122" fill="none" xmlns="http://www.w3.org/2000/svg">
<rect x="0.506453" y="-0.492222" width="118.998" height="109.105" rx="29.5" transform="matrix(0.013025 -0.999915 0.99988 0.0154714 31.992 120.01)" fill="#D9D9D9" stroke="black"/>
<rect x="0.506402" y="-0.492163" width="118.998" height="109.105" rx="29.5" transform="matrix(0.0129248 -0.999916 0.999878 0.0155913 22.992 120.01)" fill="#C79A2A" stroke="black"/>
<rect x="0.507047" y="119.497" width="119" height="119" rx="29.5" transform="rotate(-89.1866 0.507047 119.497)" fill="#C17B3F" stroke="black"/>
<mask id="path-4-outside-1_2_2" maskUnits="userSpaceOnUse" x="39" y="31" width="53" height="64" fill="black">
<rect fill="white" x="39" y="31" width="53" height="64"/>
<path d="M40.0955 38.046C40.0955 36.5553 40.6402 35.3227 41.7295 34.348C42.8188 33.316 44.1948 32.8 45.8575 32.8H69.7655C73.8935 32.8 77.5342 33.6313 80.6875 35.294C83.8982 36.8993 86.3635 39.2213 88.0835 42.26C89.8608 45.2413 90.7495 48.71 90.7495 52.666C90.7495 56.6793 89.8895 60.2053 88.1695 63.244C86.4495 66.2253 84.0128 68.5473 80.8595 70.21C77.7062 71.8153 74.0082 72.618 69.7655 72.618H51.6195V85.26C51.6195 88.012 50.6162 90.1333 48.6095 91.624C46.6602 93.0573 43.8222 93.774 40.0955 93.774V38.046ZM69.7655 62.642C72.8042 62.642 75.1548 61.7533 76.8175 59.976C78.4802 58.1987 79.3115 55.7333 79.3115 52.58C79.3115 49.484 78.4515 47.076 76.7315 45.356C75.0688 43.636 72.7468 42.776 69.7655 42.776H51.6195V62.642H69.7655Z"/>
</mask>
<path d="M40.0955 38.046C40.0955 36.5553 40.6402 35.3227 41.7295 34.348C42.8188 33.316 44.1948 32.8 45.8575 32.8H69.7655C73.8935 32.8 77.5342 33.6313 80.6875 35.294C83.8982 36.8993 86.3635 39.2213 88.0835 42.26C89.8608 45.2413 90.7495 48.71 90.7495 52.666C90.7495 56.6793 89.8895 60.2053 88.1695 63.244C86.4495 66.2253 84.0128 68.5473 80.8595 70.21C77.7062 71.8153 74.0082 72.618 69.7655 72.618H51.6195V85.26C51.6195 88.012 50.6162 90.1333 48.6095 91.624C46.6602 93.0573 43.8222 93.774 40.0955 93.774V38.046ZM69.7655 62.642C72.8042 62.642 75.1548 61.7533 76.8175 59.976C78.4802 58.1987 79.3115 55.7333 79.3115 52.58C79.3115 49.484 78.4515 47.076 76.7315 45.356C75.0688 43.636 72.7468 42.776 69.7655 42.776H51.6195V62.642H69.7655Z" fill="#D9D9D9" fill-opacity="0.79"/>
<path d="M41.7295 34.348L42.3963 35.0932L42.4069 35.0837L42.4172 35.0739L41.7295 34.348ZM80.6875 35.294L80.2211 36.1786L80.2306 36.1836L80.2403 36.1884L80.6875 35.294ZM88.0835 42.26L87.2132 42.7526L87.2188 42.7624L87.2245 42.7721L88.0835 42.26ZM88.1695 63.244L89.0357 63.7437L89.0397 63.7366L88.1695 63.244ZM80.8595 70.21L81.3132 71.1012L81.3196 71.0979L81.3259 71.0946L80.8595 70.21ZM51.6195 72.618V71.618H50.6195V72.618H51.6195ZM48.6095 91.624L49.2019 92.4297L49.2058 92.4267L48.6095 91.624ZM40.0955 93.774H39.0955V94.774H40.0955V93.774ZM76.8175 59.976L77.5478 60.6592V60.6592L76.8175 59.976ZM76.7315 45.356L76.0125 46.051L76.0184 46.0571L76.0244 46.0631L76.7315 45.356ZM51.6195 42.776V41.776H50.6195V42.776H51.6195ZM51.6195 62.642H50.6195V63.642H51.6195V62.642ZM40.0955 38.046H41.0955C41.0955 36.8334 41.5237 35.874 42.3963 35.0932L41.7295 34.348L41.0627 33.6028C39.7566 34.7714 39.0955 36.2773 39.0955 38.046H40.0955ZM41.7295 34.348L42.4172 35.0739C43.3001 34.2376 44.4206 33.8 45.8575 33.8V32.8V31.8C43.969 31.8 42.3375 32.3944 41.0417 33.622L41.7295 34.348ZM45.8575 32.8V33.8H69.7655V32.8V31.8H45.8575V32.8ZM69.7655 32.8V33.8C73.7567 33.8 77.2327 34.6029 80.2211 36.1786L80.6875 35.294L81.1539 34.4094C77.8356 32.6598 74.0302 31.8 69.7655 31.8V32.8ZM80.6875 35.294L80.2403 36.1884C83.2784 37.7075 85.594 39.892 87.2132 42.7526L88.0835 42.26L88.9537 41.7674C87.1329 38.5506 84.5179 36.0912 81.1347 34.3996L80.6875 35.294ZM88.0835 42.26L87.2245 42.7721C88.8972 45.5779 89.7495 48.8646 89.7495 52.666H90.7495H91.7495C91.7495 48.5554 90.8244 44.9048 88.9424 41.7479L88.0835 42.26ZM90.7495 52.666H89.7495C89.7495 56.5328 88.9222 59.8842 87.2992 62.7514L88.1695 63.244L89.0397 63.7366C90.8568 60.5265 91.7495 56.8259 91.7495 52.666H90.7495ZM88.1695 63.244L87.3033 62.7443C85.6811 65.5561 83.3858 67.7475 80.3931 69.3254L80.8595 70.21L81.3259 71.0946C84.6399 69.3472 87.2179 66.8945 89.0357 63.7437L88.1695 63.244ZM80.8595 70.21L80.4058 69.3188C77.4183 70.8397 73.8816 71.618 69.7655 71.618V72.618V73.618C74.1347 73.618 77.994 72.7909 81.3132 71.1012L80.8595 70.21ZM69.7655 72.618V71.618H51.6195V72.618V73.618H69.7655V72.618ZM51.6195 72.618H50.6195V85.26H51.6195H52.6195V72.618H51.6195ZM51.6195 85.26H50.6195C50.6195 87.7325 49.7376 89.5402 48.0132 90.8213L48.6095 91.624L49.2058 92.4267C51.4947 90.7264 52.6195 88.2915 52.6195 85.26H51.6195ZM48.6095 91.624L48.0171 90.8184C46.3098 92.0737 43.7171 92.774 40.0955 92.774V93.774V94.774C43.9272 94.774 47.0105 94.041 49.2019 92.4296L48.6095 91.624ZM40.0955 93.774H41.0955V38.046H40.0955H39.0955V93.774H40.0955ZM69.7655 62.642V63.642C73.0075 63.642 75.6511 62.6866 77.5478 60.6592L76.8175 59.976L76.0872 59.2928C74.6586 60.82 72.6008 61.642 69.7655 61.642V62.642ZM76.8175 59.976L77.5478 60.6592C79.4303 58.6468 80.3115 55.9095 80.3115 52.58H79.3115H78.3115C78.3115 55.5571 77.53 57.7505 76.0872 59.2928L76.8175 59.976ZM79.3115 52.58H80.3115C80.3115 49.2947 79.3938 46.6041 77.4386 44.6489L76.7315 45.356L76.0244 46.0631C77.5092 47.5479 78.3115 49.6733 78.3115 52.58H79.3115ZM76.7315 45.356L77.4505 44.661C75.5552 42.7003 72.947 41.776 69.7655 41.776V42.776V43.776C72.5467 43.776 74.5824 44.5717 76.0125 46.051L76.7315 45.356ZM69.7655 42.776V41.776H51.6195V42.776V43.776H69.7655V42.776ZM51.6195 42.776H50.6195V62.642H51.6195H52.6195V42.776H51.6195ZM51.6195 62.642V63.642H69.7655V62.642V61.642H51.6195V62.642Z" fill="black" mask="url(#path-4-outside-1_2_2)"/>
</svg>
